<svg version="1.0" xmlns="http://www.w3.org/2000/svg"
 width="740.000000pt" height="732.000000pt" viewBox="0 0 740.000000 732.000000"
 preserveAspectRatio="xMidYMid meet">

<g transform="translate(0.000000,732.000000) scale(0.100000,-0.100000)"
fill="#000000" stroke="none">
<path d="M0 3660 l0 -3660 3700 0 3700 0 0 3660 0 3660 -3700 0 -3700 0 0
-3660z m3203 1443 c75 -235 505 -1524 509 -1529 2 -2 19 45 36 104 18 59 137
442 266 852 l233 745 517 3 c285 1 515 -1 513 -5 -3 -5 -242 -640 -532 -1413
-290 -773 -545 -1448 -567 -1500 -204 -481 -414 -690 -768 -767 -103 -22 -409
-25 -535 -5 -108 18 -251 57 -359 98 -138 53 -287 126 -282 138 30 72 300 673
305 678 4 4 40 -10 82 -32 193 -101 387 -133 492 -81 26 12 59 38 73 56 l24
32 -244 614 c-134 338 -382 961 -551 1384 -169 424 -310 778 -312 788 -5 16
24 17 519 17 l524 0 57 -177z m2467 -2987 l0 -404 -22 -5 c-33 -8 -762 -9
-782 -1 -14 6 -16 45 -16 410 l0 404 410 0 410 0 0 -404z"/>
</g>
</svg>
